<svg width="89" height="89" viewBox="0 0 89 89" fill="none" xmlns="http://www.w3.org/2000/svg">
<circle cx="44.0341" cy="44.0341" r="44.0341" fill="#FFFEFE"/>
<path d="M32.5265 23.7287H55.5408C57.2681 23.7287 58.8049 24.8201 59.3765 26.4445L62.6914 35.9117H25.3759L28.6908 26.4445C29.2624 24.8201 30.7992 23.7287 32.5265 23.7287ZM21.0194 23.7668L16.5486 36.5209C13.602 37.7392 11.519 40.6453 11.519 44.0337V54.1863C11.519 57.1939 13.1575 59.8209 15.5834 61.2169V68.3998C15.5834 70.646 17.3996 72.4608 19.6477 72.4608H23.712C25.9601 72.4608 27.7763 70.646 27.7763 68.3998V62.3083H60.2909V68.3998C60.2909 70.646 62.1072 72.4608 64.3553 72.4608H68.4196C70.6677 72.4608 72.4839 70.646 72.4839 68.3998V61.2169C74.9098 59.8082 76.5482 57.1939 76.5482 54.1863V44.0337C76.5482 40.6453 74.4653 37.7392 71.5186 36.5209L67.0479 23.7668C65.3332 18.8809 60.7228 15.6067 55.5408 15.6067H32.5265C27.3445 15.6067 22.734 18.8809 21.0194 23.7668ZM37.9372 46.0642H50.1301C51.2478 46.0642 52.1623 46.978 52.1623 48.0947V52.1558C52.1623 53.2725 51.2478 54.1863 50.1301 54.1863H37.9372C36.8195 54.1863 35.905 53.2725 35.905 52.1558V48.0947C35.905 46.978 36.8195 46.0642 37.9372 46.0642ZM17.6155 47.0795C17.6155 45.3916 18.9745 44.0337 20.6638 44.0337H24.7281C26.4173 44.0337 27.7763 45.3916 27.7763 47.0795C27.7763 48.7673 26.4173 50.1252 24.7281 50.1252H20.6638C18.9745 50.1252 17.6155 48.7673 17.6155 47.0795ZM63.3392 44.0337H67.4035C69.0927 44.0337 70.4518 45.3916 70.4518 47.0795C70.4518 48.7673 69.0927 50.1252 67.4035 50.1252H63.3392C61.6499 50.1252 60.2909 48.7673 60.2909 47.0795C60.2909 45.3916 61.6499 44.0337 63.3392 44.0337Z" fill="#2B3E79"/>
</svg>
